# xmcd CD database file
#
# Track frame offsets:
#	187
#	12322
#	23242
#	33087
#	43407
#	63612
#	83257
#	102870
#	116850
#	128537
#	140320
#	153410
#	162895
#	173575
#	189580
#	205235
#	211940
#	234400
#	248772
#	288622
#	300735
#
# Disc length: 4097 seconds
#
# Revision: 2
# Processed by: cddbd v1.5.1PL0 Copyright (c) Steve Scherf et al.
# Submitted via: CDex 1.51
#
DISCID=180fff15
DTITLE=Jean-Joel Barbier - Erik Satie Piano Deluxe [DISC1]
DYEAR=1971
DGENRE=Piano
TTITLE0=4つのオジーヴ(1886) -第1番
TTITLE1=4つのオジーヴ(1886)-第2番
TTITLE2=4つのオジーヴ(1886)-第3番
TTITLE3=4つのオジーヴ(1886)-第4番
TTITLE4=3つのサラバンド(1887) -第1番
TTITLE5=3つのサラバンド(1887)-第2番
TTITLE6=3つのサラバンド(1887)-第3番
TTITLE7=3つのジムノペディ(1888) -第1番
TTITLE8=3つのジムノペディ(1888)-第2番
TTITLE9=3つのジムノペディ(1888)-第3番
TTITLE10=3つのグノシェンヌ(1890) -第1番
TTITLE11=3つのグノシェンヌ(1890)-第2番
TTITLE12=3つのグノシェンヌ(1890)-第3番
TTITLE13=3つの新グノシェンヌ(1889/97)-第4番
TTITLE14=3つの新グノシェンヌ(1889/97)-第5番
TTITLE15=3つの新グノシェンヌ(1889/97)-第6番
TTITLE16=おまえが欲しい <ワルツ> (1900/02)
TTITLE17=始まりの様式で [梨の形をした3つの小曲<4手連弾>(1903)]
TTITLE18=同じものの延長 ?ゆっくりと ?奔放に ?粗野に
TTITLE19=つけ加え
TTITLE20=言いなおし
EXTD=YEAR: 1971
EXTT0=
EXTT1=
EXTT2=
EXTT3=
EXTT4=
EXTT5=
EXTT6=
EXTT7=
EXTT8=
EXTT9=
EXTT10=
EXTT11=
EXTT12=
EXTT13=
EXTT14=
EXTT15=
EXTT16=
EXTT17=
EXTT18=
EXTT19=
EXTT20=
PLAYORDER=
